<?xml version="1.0" encoding="utf-8"?>
<!-- Generator: Adobe Illustrator 24.0.2, SVG Export Plug-In . SVG Version: 6.00 Build 0)  -->
<svg version="1.1" id="a90f9a71-1dd7-46d2-a7ac-5b91320676f6"
	 xmlns="http://www.w3.org/2000/svg" xmlns:xlink="http://www.w3.org/1999/xlink" x="0px" y="0px" viewBox="0 0 880.3 774.2"
	 style="enable-background:new 0 0 880.3 774.2;" xml:space="preserve">
<style type="text/css">
	.st0{fill:#3F3D56;}
	.st1{fill:#536DFE;}
	.st2{fill:#2F2E41;}
	.st3{opacity:0.1;fill:#FFFFFF;enable-background:new    ;}
	.st4{opacity:0.1;enable-background:new    ;}
	.st5{fill:#FBBEBE;}
	.st6{fill:#D0CDE1;}
</style>
<title>signal_searching</title>
<ellipse class="st0" cx="652.7" cy="736.6" rx="205.4" ry="37.7"/>
<path class="st0" d="M835.2,735.5c-0.2-0.3-5.2-8.7-6.9-26c-1.6-15.9-0.6-42.7,13.3-80.1c26.3-70.8-6.1-128-6.4-128.6l1.6-0.9
	c0.1,0.1,8.4,14.7,13.4,37.9c6.5,30.8,4.2,62.8-6.9,92.2c-26.3,70.7-6.7,104.2-6.5,104.5L835.2,735.5z"/>
<circle class="st0" cx="824.9" cy="484.6" r="12"/>
<circle class="st0" cx="862.7" cy="529" r="12"/>
<circle class="st1" cx="836.9" cy="558.5" r="12"/>
<circle class="st1" cx="868.3" cy="583.5" r="12"/>
<circle class="st0" cx="827.6" cy="622.3" r="12"/>
<path class="st0" d="M842.4,735.9c0,0-12-29.6,24-51.7L842.4,735.9z"/>
<path class="st0" d="M827.6,735.4c0,0-5.5-31.4-47.8-31.2L827.6,735.4z"/>
<polygon class="st2" points="77.2,389.6 266.8,518.4 284.8,504.5 300.8,505.9 270.4,535.4 77.2,413.9 "/>
<polygon class="st2" points="465.5,329.4 545.7,424.2 529.9,443.6 435.7,337.9 "/>
<ellipse class="st1" cx="68.7" cy="362.8" rx="18.2" ry="20.7"/>
<ellipse transform="matrix(0.2575 -0.9663 0.9663 0.2575 -24.9448 528.3065)" class="st0" cx="331.3" cy="280.4" rx="229.2" ry="164.4"/>
<ellipse transform="matrix(0.2575 -0.9663 0.9663 0.2575 -24.9454 528.3077)" class="st3" cx="331.3" cy="280.4" rx="209.8" ry="150.5"/>
<circle class="st1" cx="297.2" cy="272.9" r="3.6"/>
<circle class="st1" cx="276.5" cy="359.2" r="3.6"/>
<circle class="st1" cx="378.6" cy="280.2" r="3.6"/>
<circle class="st1" cx="358" cy="367.7" r="3.6"/>
<path class="st2" d="M83.3,419.9l-12,2.4l-0.2,0l-28-7.3l-8.5-55.9l5.2-2.4l13.1-6.1c23.1,0,28,13.4,28,13.4L83.3,419.9z"/>
<path class="st4" d="M71.3,422.3l-0.2,0l-28-7.3l-8.5-55.9l5.2-2.4c10.7,1.4,23.1,4.4,27.7,10.9L71.3,422.3z"/>
<path class="st1" d="M128.8,283.2c-0.7,0-1.3-0.2-1.9-0.5c-36-21.4-70.9-21.4-106.9,0c-1.7,1-4,0.5-5-1.3c-1-1.7-0.5-4,1.3-5
	c37.9-22.6,76.4-22.6,114.3,0c1.7,1,2.3,3.3,1.3,5C131.3,282.5,130.1,283.2,128.8,283.2L128.8,283.2z"/>
<path class="st1" d="M114.9,313.4c-0.7,0-1.3-0.2-1.9-0.5c-27-16.1-53.2-16.1-80.1,0c-1.7,1-4,0.5-5-1.3c-1-1.7-0.5-4,1.3-5
	c29.1-17.3,58.5-17.3,87.6,0c1.7,1,2.3,3.3,1.3,5C117.3,312.7,116.1,313.4,114.9,313.4L114.9,313.4z"/>
<path class="st1" d="M139.8,249.2c-0.7,0-1.3-0.2-1.9-0.5c-35.9-21.4-96.5-21.4-132.4,0c-1.7,1-4,0.5-5-1.3s-0.5-4,1.3-5
	c0,0,0,0,0,0c37.9-22.6,102-22.6,139.9,0c1.7,1,2.3,3.3,1.3,5C142.3,248.5,141.1,249.2,139.8,249.2L139.8,249.2z"/>
<polygon class="st5" points="738.7,664.6 746.4,695.4 712.5,704.7 709.4,672.3 "/>
<polygon class="st5" points="615.5,703.1 615.5,732.4 581.6,738.5 575.5,723.1 587.8,697 "/>
<path class="st2" d="M683.2,384.4l-4.6,41.6l3.1,80.1c0,0,4.6,0,4.6,4.6c0,4.6-4.6,3.1,0,6.2c2.5,1.7,5,3.2,7.7,4.6l49.3,149.4
	c0,0-12.3,15.4-35.4,10.8l-4.6-15.4c0,0-9.2-9.2-9.2-13.9s3.1-6.2,0-10.8S644.8,543,644.8,543l-21.6-38.5l-6.2,52.4
	c0,0,12.3,66.2,9.2,97S617,717,617,717l-37-6.2c-0.2-5-1.8-9.8-4.6-13.9c-4.6-6.2-10.8-4.6-4.6-9.2c6.2-4.6,13.9,0,7.7-6.2
	s-6.2-12.3-6.2-12.3v-4.6l-9.2-118.6l-16.9-155.5L683.2,384.4z"/>
<circle class="st5" cx="578.5" cy="62.6" r="41.6"/>
<polygon class="st5" points="614.7,63.4 631.7,104.9 591.6,134.2 567,91.1 "/>
<path class="st6" d="M617,94.9l15.4-7.7l9.2,21.6c0,0,60.1,18.5,55.4,103.2c-4.6,84.7-15.4,117-15.4,117s26.2,55.4,10.8,61.6
	s-146.3,29.3-149.4,7.7s10.8-147.8,10.8-147.8s-4.6-90.8,33.9-109.3l-7.7-16.9L617,94.9z"/>
<path class="st5" d="M532.4,393.6c0,0-35.4,37-15.4,46.2c20,9.2,32.3-41.6,32.3-41.6L532.4,393.6z"/>
<path class="st2" d="M604.7,724.7l16.9-6.2c0,0,18.5,41.6,3.1,41.6h-40c0,0-23.1-7.7-35.4-7.7c-12.3,0-35.4-23.1-18.5-33.9
	c16.9-10.8,38.5-7.7,38.5-7.7l6.2-13.9l7.7,21.6C583.2,718.5,592.4,733.9,604.7,724.7z"/>
<path class="st2" d="M729.4,690.8c0,0,9.6-6.1,14.8-3.8c5.2,2.3,8.3,26.9,8.3,26.9s15.4,18.5-18.5,21.6s-41.6-3.1-44.7-12.3
	s3.1-18.5,3.1-18.5l9.2-3.1c0,0,10.8-7.7,7.7-10.8s0-9.2,0-9.2S720.2,703.1,729.4,690.8z"/>
<path class="st2" d="M592.8,61.9c-0.2-1.3-0.5-2.7-0.9-4c-2.2-4.7-11-3.3-12.5-8.3c-0.3-1-0.2-2-0.5-3c-0.8-2.5-3.7-3.7-6.3-3.6
	s-5,1.2-7.5,1.9c-6.1,1.7-12.6,1.1-18.9,0.4c-2.8-0.3-5.7-0.6-8.1-2.1c-2.4-1.5-4.1-4.4-3.2-7.1c0.8-2.6,3.6-4,4.9-6.3
	c2-3.8-0.4-8.6,1.2-12.6c2.6-6.3,12.4-5.1,17.4-9.7c1.2-1.1,2.1-2.6,3.2-3.8c3.4-3.5,8.9-4.2,13.8-3.7S585.1,2.1,590,2
	c4.7-0.1,9.6-1.5,13.9,0.3c2.6,1.1,4.6,3.3,6.5,5.3l11,12.1c1.5,1.4,2.7,3.2,3.4,5.1c0.7,2.3,0.1,4.8,0.3,7.2
	c0.6,5.5,5.8,9.6,6.4,15c0.1,1.7,0.1,3.4-0.2,5.1l-1.5,11.4c-0.1,1.1-0.4,2.2-0.9,3.2c-0.4,0.8-1.1,1.4-1.6,2.1
	c-1.4,2.1-1.3,4.8-2,7.2c-0.7,2.4-3.3,4.8-5.5,3.6c-1.5-0.8-2.4-7-4.2-8.6c-2.5-2.3-3.7-2-6.8-1.9C602.8,69.2,594.7,69.7,592.8,61.9
	z"/>
<path class="st6" d="M600.1,151.9c0,0,46.2,18.5,32.3,60s-50.8,169.4-50.8,169.4l-21.6,10.8l-6.2,16.9l-29.3-10.8l4.6-23.1
	c0,0,1.5-1.5,1.5-7.7s-6.2-7.7,1.5-7.7s7.7-7.7,7.7-7.7l27.7-172.5C567.8,179.6,567.8,150.4,600.1,151.9z"/>
<polygon class="st4" points="634.7,220.4 587,383.6 567,403.6 578.5,382.9 "/>
</svg>
